<svg xmlns="http://www.w3.org/2000/svg" version="1.1" xmlns:xlink="http://www.w3.org/1999/xlink" xmlns:svgjs="http://svgjs.dev/svgjs" width="1500" height="1032" viewBox="0 0 1500 1032"><g transform="matrix(1,0,0,1,0.24544726057320077,0.41781376518213165)"><svg viewBox="0 0 359 247" data-background-color="#ffffff" preserveAspectRatio="xMidYMid meet" height="1032" width="1500" xmlns="http://www.w3.org/2000/svg" xmlns:xlink="http://www.w3.org/1999/xlink"><g id="tight-bounds" transform="matrix(1,0,0,1,-0.05874371103053022,-0.09999999999999432)"><svg viewBox="0 0 359.11748742206106 247.2" height="247.2" width="359.11748742206106"><g><svg viewBox="0 0 395.52 272.2578193054981" height="247.2" width="359.11748742206106"><g transform="matrix(1,0,0,1,0,168.26625477280385)"><svg viewBox="0 0 395.52 103.99156453269427" height="103.99156453269427" width="395.52"><g id="textblocktransform"><svg viewBox="0 0 395.52 103.99156453269427" height="103.99156453269427" width="395.52" id="textblock"><g><svg viewBox="0 0 395.52 103.99156453269427" height="103.99156453269427" width="395.52"><g transform="matrix(1,0,0,1,0,0)"><svg width="395.52" viewBox="1.7 -37.65 146.04000000000002 38.4" height="103.99156453269427" data-palette-color="#000000"><path d="M12.35-27.15Q14.5-27.15 16.25-26.43 18-25.7 19.6-24.15L19.6-24.15 16.95-20.65Q15.85-21.55 14.88-21.98 13.9-22.4 12.75-22.4L12.75-22.4Q10.5-22.4 9.35-20.28 8.2-18.15 8.2-13.1L8.2-13.1Q8.2-8.2 9.38-6.2 10.55-4.2 12.75-4.2L12.75-4.2Q13.85-4.2 14.75-4.6 15.65-5 16.85-5.85L16.85-5.85 19.6-2.3Q16.4 0.75 12.45 0.75L12.45 0.75Q7.35 0.75 4.53-2.73 1.7-6.2 1.7-13L1.7-13Q1.7-17.4 3-20.6 4.3-23.8 6.73-25.48 9.15-27.15 12.35-27.15L12.35-27.15ZM35-27.15Q37.85-27.15 39.5-25.1 41.15-23.05 41.15-19.6L41.15-19.6 41.15 0 35 0 35-18.9Q35-20.8 34.47-21.63 33.95-22.45 32.95-22.45L32.95-22.45Q30.85-22.45 28.8-18.5L28.8-18.5 28.8 0 22.65 0 22.65-37 28.8-37.65 28.8-23.3Q30.05-25.25 31.52-26.2 33-27.15 35-27.15L35-27.15ZM63.59-6.4Q63.59-5.1 63.95-4.48 64.3-3.85 65.09-3.45L65.09-3.45 63.84 0.65Q61.8 0.4 60.57-0.45 59.34-1.3 58.74-3.05L58.74-3.05Q56.45 0.75 52.3 0.75L52.3 0.75Q48.99 0.75 47.05-1.48 45.09-3.7 45.09-7.4L45.09-7.4Q45.09-11.7 47.77-13.95 50.45-16.2 55.55-16.2L55.55-16.2 57.59-16.2 57.59-18.05Q57.59-20.55 56.72-21.58 55.84-22.6 53.89-22.6L53.89-22.6Q51.55-22.6 48.05-21.3L48.05-21.3 46.64-25.3Q48.64-26.2 50.8-26.68 52.95-27.15 54.89-27.15L54.89-27.15Q63.59-27.15 63.59-18.35L63.59-18.35 63.59-6.4ZM53.95-3.7Q56.34-3.7 57.59-7L57.59-7 57.59-12.55 56.14-12.55Q53.59-12.55 52.42-11.4 51.24-10.25 51.24-7.85L51.24-7.85Q51.24-5.8 51.95-4.75 52.64-3.7 53.95-3.7L53.95-3.7ZM80.54-5L82.69-1.2Q80.24 0.75 76.94 0.75L76.94 0.75Q73.49 0.75 71.69-1.23 69.89-3.2 69.89-6.6L69.89-6.6 69.89-22 66.79-22 66.79-26.45 69.89-26.45 69.89-32.3 76.04-33.05 76.04-26.45 81.04-26.45 80.44-22 76.04-22 76.04-6.6Q76.04-4.2 78.09-4.2L78.09-4.2Q78.74-4.2 79.24-4.38 79.74-4.55 80.54-5L80.54-5ZM97.39-27.15Q101.24-27.15 103.29-23.65 105.34-20.15 105.34-13.25L105.34-13.25Q105.34-6.75 103.04-3 100.74 0.75 96.74 0.75L96.74 0.75Q94.99 0.75 93.54-0.13 92.09-1 91.04-2.55L91.04-2.55 90.69 0 85.24 0 85.24-37 91.39-37.65 91.39-23.6Q92.44-25.3 93.97-26.23 95.49-27.15 97.39-27.15L97.39-27.15ZM95.09-3.9Q96.94-3.9 97.97-6 98.99-8.1 98.99-13.25L98.99-13.25Q98.99-18.6 98.07-20.58 97.14-22.55 95.44-22.55L95.44-22.55Q94.29-22.55 93.24-21.6 92.19-20.65 91.39-19.1L91.39-19.1 91.39-6.7Q92.04-5.45 93.02-4.67 93.99-3.9 95.09-3.9L95.09-3.9ZM119.34-27.15Q124.34-27.15 127.11-23.65 129.89-20.15 129.89-13.25L129.89-13.25Q129.89-6.65 127.09-2.95 124.29 0.75 119.34 0.75L119.34 0.75Q114.39 0.75 111.59-2.88 108.79-6.5 108.79-13.25L108.79-13.25Q108.79-19.95 111.59-23.55 114.39-27.15 119.34-27.15L119.34-27.15ZM119.34-22.5Q117.19-22.5 116.19-20.38 115.19-18.25 115.19-13.25L115.19-13.25Q115.19-8.2 116.19-6.08 117.19-3.95 119.34-3.95L119.34-3.95Q121.49-3.95 122.49-6.08 123.49-8.2 123.49-13.25L123.49-13.25Q123.49-18.3 122.49-20.4 121.49-22.5 119.34-22.5L119.34-22.5ZM145.59-5L147.74-1.2Q145.29 0.75 141.99 0.75L141.99 0.75Q138.54 0.75 136.74-1.23 134.94-3.2 134.94-6.6L134.94-6.6 134.94-22 131.84-22 131.84-26.45 134.94-26.45 134.94-32.3 141.09-33.05 141.09-26.45 146.09-26.45 145.49-22 141.09-22 141.09-6.6Q141.09-4.2 143.14-4.2L143.14-4.2Q143.79-4.2 144.29-4.38 144.79-4.55 145.59-5L145.59-5Z" opacity="1" transform="matrix(1,0,0,1,0,0)" fill="#000000" class="wordmark-text-0" data-fill-palette-color="primary" id="text-0"></path></svg></g></svg></g></svg></g></svg></g><g transform="matrix(1,0,0,1,125.90182890790824,0)"><svg viewBox="0 0 143.7163421841835 143.7163421841835" height="143.7163421841835" width="143.7163421841835"><g><svg xmlns="http://www.w3.org/2000/svg" xmlns:xlink="http://www.w3.org/1999/xlink" version="1.1" x="0" y="0" viewBox="12 12 256 256" enable-background="new 0 0 280 280" xml:space="preserve" height="143.7163421841835" width="143.7163421841835" class="icon-icon-0" data-fill-palette-color="accent" id="icon-0"><g fill="#128c7e" data-fill-palette-color="accent"><path d="M140 12C69.42 12 12 69.422 12 140.002 12 210.58 69.42 268 140 268c70.579 0 128-57.42 128-127.998C268 69.422 210.579 12 140 12zM140 47.972c20.581 0 39.399 6.068 53.91 16.095l-9.112 8.773-1.193 1.151c-3.657-2.026-7.473-3.758-11.377-5.188-5.162-1.88-10.492-3.271-15.897-4.139-4.318-0.674-8.674-1.02-13.029-1.074-1.024-1.674-2.119-3.391-3.301-5.155-1.183 1.765-2.276 3.481-3.301 5.156-4.355 0.056-8.713 0.401-13.032 1.076-5.404 0.866-10.734 2.259-15.896 4.14-3.904 1.431-7.717 3.162-11.372 5.188L95.2 72.841l-9.109-8.775C100.6 54.039 119.417 47.972 140 47.972zM171.991 89.816c-0.119 0.615-0.188 1.358-0.203 1.95l-0.077 1.738-0.155 3.479-0.523 11.81h-62.065l-0.524-11.81-0.153-3.479-0.077-1.738c-0.017-0.592-0.084-1.334-0.203-1.95-0.494-2.545-1.479-4.819-2.845-6.92-0.349-0.521-0.725-1.028-1.15-1.512-0.466-0.537-0.87-0.884-1.291-1.299l-2.507-2.414-2.51-2.418c3.373-1.994 6.904-3.739 10.54-5.216 5.014-2.025 10.23-3.578 15.555-4.63 4.213-0.858 8.493-1.403 12.8-1.661-1.125 1.841-2.166 3.627-3.133 5.35-4.836 0.684-9.631 1.506-14.534 2.384 4.44 1.928 8.287 4.207 11.696 6.509-0.365 3.324-0.758 6.563-1.443 9.841 3.603-1.548 7.148-3.091 10.813-4.646 3.665 1.555 7.209 3.098 10.814 4.646-0.688-3.278-1.083-6.517-1.446-9.841 3.411-2.302 7.26-4.581 11.698-6.509-4.901-0.878-9.694-1.7-14.534-2.384-0.966-1.723-2.008-3.509-3.133-5.35 4.305 0.26 8.585 0.805 12.797 1.663 5.323 1.052 10.54 2.604 15.554 4.632 3.636 1.476 7.165 3.222 10.539 5.216l-2.505 2.413-2.508 2.415c-0.42 0.414-0.824 0.761-1.291 1.299-0.426 0.483-0.801 0.991-1.15 1.512C173.472 84.997 172.485 87.271 171.991 89.816zM188.979 114.388c5.446 0 9.876 4.432 9.876 9.879v60.948c0 5.447-4.43 9.878-9.876 9.878H91.019c-5.446 0-9.877-4.431-9.877-9.878v-60.948c0-5.447 4.431-9.879 9.877-9.879H188.979zM54.479 131.101c-1.662 0.873-3.214 1.931-4.595 3.165-3.853 3.401-6.404 8.104-7.01 12.975 1.321-4.731 4.433-8.731 8.331-11.26 1.043-0.685 2.143-1.256 3.273-1.731v33.9c-1.133-0.475-2.232-1.048-3.273-1.729-3.9-2.53-7.012-6.53-8.332-11.262 0.605 4.871 3.156 9.574 7.01 12.976 1.383 1.229 2.934 2.291 4.596 3.166v3.056c-10.59-3.449-18.226-12.998-18.226-24.217 0-11.218 7.636-20.766 18.226-24.216V131.101zM56.953 187.51v-72.384c0-20.409 11.274-38.679 29.044-50.994l8.307 9.561 0.882 1.015c-5.525 3.196-10.677 7.065-15.185 11.661-7.755 7.919-13.484 18.113-15.401 29.252-0.484 2.769-0.733 5.599-0.749 8.401l-0.071 8.175-0.143 16.351-0.231 32.7-0.043 8.175-0.012 2.043c0 0.681-0.017 1.346 0.012 2.126 0.057 1.523 0.253 3.007 0.592 4.479 1.184 5.188 4.191 9.899 8.328 13.233C63.265 207.153 56.953 198.043 56.953 187.51zM188.395 253.147c-0.026-0.051-0.046-0.106-0.077-0.156l-0.042-0.065c-1.981-3.145-4.632-5.925-7.538-8.15-2.924-2.238-6.143-4.005-9.493-5.356-2.023-0.817-4.096-1.464-6.194-1.986-0.167 0.384-0.383 0.768-0.642 1.15 2.086 0.702 4.121 1.532 6.069 2.524 3.086 1.57 5.967 3.507 8.476 5.802 2.432 2.242 4.46 4.775 5.985 7.657-13.922 5.469-29.075 8.487-44.938 8.487-15.862 0-31.016-3.019-44.938-8.486 1.491-2.833 3.553-5.423 5.985-7.658 2.508-2.295 5.389-4.23 8.475-5.802 1.948-0.992 3.981-1.821 6.064-2.523-0.259-0.383-0.474-0.767-0.642-1.15-2.096 0.522-4.168 1.17-6.189 1.985-3.35 1.352-6.568 3.118-9.494 5.356-2.913 2.242-5.533 4.971-7.557 8.186-0.027 0.045-0.057 0.095-0.08 0.142-0.008 0.016-0.012 0.03-0.017 0.046-4.068-1.743-8.03-3.685-11.857-5.839 6.987-8.277 19.387-13.787 33.528-13.787h1.576c0.094-0.199 0.2-0.392 0.327-0.575-0.469-0.871-0.707-1.742-0.71-2.605 0-0.862 0.245-1.651 0.71-2.324-0.471-0.871-0.707-1.742-0.71-2.606 0-0.861 0.246-1.649 0.71-2.322-0.469-0.871-0.707-1.743-0.71-2.605 0-0.863 0.246-1.652 0.71-2.324-0.274-0.511-0.46-1.021-0.575-1.529l2.622 0.005c0.126 0.378 0.322 0.713 0.521 0.999 0.741 0.989 1.673 1.708 2.629 2.359 1.931 1.28 4.038 2.215 6.192 2.964 2.162 0.738 4.395 1.241 6.641 1.572 2.249 0.329 4.524 0.457 6.787 0.374 2.262 0.083 4.537-0.046 6.786-0.375 2.249-0.332 4.479-0.835 6.642-1.573 2.156-0.749 4.262-1.684 6.192-2.966 0.956-0.65 1.89-1.369 2.628-2.358 0.2-0.284 0.396-0.62 0.521-0.994l2.624-0.005c-0.114 0.508-0.3 1.018-0.576 1.529 0.466 0.67 0.71 1.459 0.71 2.322 0 0.861-0.238 1.734-0.71 2.607 0.466 0.672 0.71 1.459 0.71 2.32 0 0.863-0.238 1.735-0.71 2.608 0.466 0.673 0.71 1.461 0.71 2.322s-0.237 1.733-0.709 2.606c0.128 0.184 0.233 0.376 0.327 0.574h1.576c14.144 0 26.544 5.51 33.528 13.787C196.422 249.464 192.461 251.405 188.395 253.147zM151.116 219.135c-3.614 1.024-7.363 1.552-11.119 1.498-3.753 0.051-7.504-0.475-11.116-1.5-2.161-0.632-4.317-1.427-6.3-2.489l0.613 0.002c1.1 0.527 2.229 0.984 3.377 1.382 2.162 0.739 4.394 1.241 6.641 1.572 2.249 0.33 4.524 0.457 6.787 0.374 2.262 0.083 4.537-0.044 6.786-0.375s4.479-0.835 6.642-1.573c1.144-0.397 2.271-0.853 3.369-1.379l0.62-0.001C155.434 217.707 153.276 218.503 151.116 219.135zM159.368 217.231c0.337-0.01 0.768 0.124 0.602 0.35-1.443 1.942-9.746 4.964-12.1 4.403-0.271-0.064-0.03-0.444 0.236-0.653L159.368 217.231zM131.894 221.331c0.263 0.209 0.504 0.589 0.234 0.653-2.354 0.561-10.656-2.461-12.098-4.403-0.168-0.226 0.262-0.359 0.599-0.35L131.894 221.331zM203.4 208.672c-2.036 1.327-4.313 2.271-6.687 2.76-1.185 0.243-2.397 0.371-3.605 0.386l-4.057-0.004-16.351-0.028-81.75 0.031-4.055 0.004c-1.214-0.015-2.423-0.144-3.61-0.386-2.37-0.489-4.654-1.423-6.689-2.755-4.082-2.651-7.124-6.899-8.256-11.646-0.288-1.18-0.462-2.408-0.519-3.606-0.03-0.581-0.024-1.279-0.029-1.963l-0.011-2.043-0.043-8.175-0.232-32.7-0.143-16.351-0.071-8.175c-0.025-2.647 0.141-5.27 0.528-7.88 1.528-10.46 6.688-20.271 13.954-28.093 4.252-4.646 9.21-8.634 14.6-11.973l2.495 2.873 2.284 2.628c0.37 0.434 0.802 0.895 1.056 1.267 0.308 0.417 0.584 0.87 0.84 1.338 1.007 1.878 1.697 4.025 1.896 6.066 0.049 0.533 0.049 0.95 0.018 1.519l-0.076 1.738-0.154 3.479-0.525 11.81H91.019c-8.51 0-15.473 6.962-15.473 15.474v60.948c0 8.51 6.963 15.473 15.473 15.473h97.961c8.513 0 15.474-6.963 15.474-15.473v-60.948c0-8.512-6.961-15.474-15.474-15.474H175.79l-0.523-11.81-0.154-3.479-0.078-1.738c-0.031-0.568-0.029-0.985 0.02-1.519 0.198-2.041 0.891-4.188 1.896-6.066 0.256-0.469 0.533-0.922 0.838-1.339 0.256-0.372 0.687-0.833 1.056-1.267l2.285-2.627 2.492-2.868c5.388 3.337 10.346 7.325 14.597 11.972 7.268 7.817 12.426 17.63 13.953 28.088 0.188 1.304 0.342 2.611 0.417 3.926 0.055 0.661 0.071 1.303 0.097 1.949l0.018 2.003-0.072 8.175-0.143 16.351-0.23 32.7-0.044 8.176-0.01 2.043c-0.007 0.692 0 1.367-0.03 1.951-0.057 1.22-0.231 2.432-0.518 3.616C210.522 201.774 207.482 206.022 203.4 208.672zM223.047 187.51c0 10.52-6.298 19.619-15.296 23.777 4.123-3.335 7.121-8.04 8.302-13.218 0.339-1.468 0.537-2.968 0.591-4.47 0.029-0.778 0.012-1.468 0.012-2.137l-0.01-2.043-0.043-8.176-0.231-32.7-0.145-16.351-0.07-8.175-0.055-2.083c-0.04-0.716-0.072-1.436-0.142-2.132-0.119-1.404-0.318-2.801-0.552-4.188-0.965-5.551-2.872-10.909-5.511-15.84-2.654-4.925-6.016-9.438-9.896-13.413-4.507-4.595-9.658-8.463-15.183-11.658l0.878-1.012 8.307-9.56c17.769 12.315 29.044 30.585 29.044 50.993V187.51zM225.521 174.356V171.3c1.661-0.875 3.21-1.937 4.591-3.165 3.854-3.401 6.406-8.104 7.01-12.976-1.319 4.731-4.431 8.731-8.329 11.261-1.041 0.681-2.141 1.254-3.271 1.729v-33.9c1.129 0.476 2.229 1.047 3.27 1.73 3.9 2.529 7.01 6.528 8.331 11.261-0.604-4.87-3.156-9.574-7.01-12.975-1.379-1.234-2.93-2.292-4.591-3.165v-5.176c10.587 3.451 18.223 12.998 18.223 24.215C243.743 161.357 236.107 170.905 225.521 174.356z" fill="#128c7e" data-fill-palette-color="accent"></path><path d="M161.602 233.817l-0.3-0.154-0.27 0.235c-2.764 2.426-6.34 3.907-9.918 4.953-3.612 1.025-7.361 1.553-11.117 1.5-3.753 0.05-7.504-0.476-11.116-1.501-3.576-1.047-7.152-2.526-9.916-4.954l-0.267-0.235-0.306 0.154c-0.547 0.275-1.214 0.827-1.284 1.649-0.068 0.776 0.299 1.395 0.643 1.887 0.74 0.989 1.672 1.707 2.628 2.358 1.931 1.281 4.038 2.216 6.192 2.964 2.162 0.739 4.395 1.241 6.641 1.572 2.249 0.33 4.524 0.457 6.787 0.374 2.262 0.083 4.537-0.044 6.786-0.375 2.247-0.33 4.479-0.835 6.64-1.573 2.156-0.748 4.264-1.683 6.194-2.964 0.956-0.651 1.89-1.37 2.628-2.359 0.346-0.49 0.707-1.115 0.643-1.873C162.812 234.628 162.15 234.1 161.602 233.817zM132.128 241.702c-2.354 0.561-10.658-2.463-12.098-4.404-0.168-0.223 0.262-0.358 0.599-0.35l11.265 4.1C132.154 241.257 132.396 241.637 132.128 241.702zM159.97 237.298c-1.443 1.941-9.746 4.965-12.098 4.404-0.271-0.065-0.029-0.445 0.234-0.654l11.266-4.1C159.706 236.939 160.136 237.075 159.97 237.298z" fill="#128c7e" data-fill-palette-color="accent"></path><path d="M161.601 228.887l-0.301-0.153-0.268 0.236c-2.764 2.427-6.34 3.907-9.916 4.953-3.614 1.024-7.363 1.551-11.119 1.499-3.753 0.049-7.504-0.476-11.116-1.5-3.576-1.047-7.153-2.526-9.916-4.954l-0.267-0.235-0.305 0.152c-0.548 0.276-1.215 0.828-1.285 1.65-0.068 0.777 0.299 1.395 0.642 1.887 0.741 0.989 1.673 1.707 2.629 2.359 1.931 1.281 4.037 2.215 6.192 2.964 2.162 0.738 4.394 1.242 6.641 1.573 2.249 0.33 4.524 0.456 6.787 0.373 2.262 0.083 4.537-0.044 6.786-0.375s4.479-0.835 6.642-1.573c2.156-0.749 4.262-1.684 6.192-2.965 0.956-0.652 1.89-1.371 2.628-2.36 0.346-0.489 0.707-1.117 0.643-1.872C162.814 229.695 162.148 229.169 161.601 228.887zM132.128 236.774c-2.354 0.563-10.652-2.464-12.098-4.404-0.168-0.224 0.262-0.358 0.599-0.35l11.263 4.101C132.156 236.331 132.396 236.71 132.128 236.774zM159.97 232.37c-1.447 1.94-9.749 4.967-12.1 4.404-0.27-0.064-0.03-0.443 0.236-0.653l11.262-4.101C159.706 232.012 160.136 232.146 159.97 232.37z" fill="#128c7e" data-fill-palette-color="accent"></path><path d="M161.602 223.958l-0.3-0.155-0.27 0.237c-2.764 2.427-6.34 3.907-9.916 4.953-3.614 1.023-7.363 1.551-11.119 1.498-3.753 0.049-7.504-0.475-11.116-1.499-3.576-1.047-7.153-2.526-9.916-4.954l-0.267-0.235-0.306 0.154c-0.547 0.275-1.214 0.826-1.284 1.649-0.068 0.776 0.299 1.395 0.642 1.887 0.741 0.988 1.673 1.707 2.629 2.358 1.931 1.281 4.038 2.216 6.192 2.964 2.162 0.738 4.394 1.241 6.641 1.572 2.249 0.329 4.524 0.457 6.787 0.375 2.262 0.082 4.537-0.046 6.786-0.375 2.247-0.332 4.479-0.837 6.642-1.574 2.156-0.748 4.262-1.683 6.192-2.965 0.956-0.65 1.89-1.37 2.628-2.358 0.346-0.491 0.707-1.116 0.643-1.874C162.812 224.769 162.15 224.241 161.602 223.958zM132.128 231.842c-2.355 0.563-10.656-2.46-12.098-4.402-0.168-0.225 0.262-0.358 0.599-0.351l11.263 4.101C132.154 231.399 132.396 231.778 132.128 231.842zM159.97 227.439c-1.443 1.942-9.745 4.965-12.1 4.402-0.27-0.063-0.027-0.442 0.236-0.652l11.266-4.101C159.706 227.081 160.136 227.215 159.97 227.439z" fill="#128c7e" data-fill-palette-color="accent"></path><path d="M161.601 219.03l-0.301-0.153-0.268 0.235c-2.765 2.425-6.34 3.906-9.918 4.952-3.612 1.024-7.361 1.551-11.117 1.498-3.753 0.05-7.504-0.474-11.116-1.5-3.576-1.046-7.152-2.526-9.916-4.952l-0.266-0.234-0.304 0.152c-0.551 0.273-1.218 0.827-1.287 1.649-0.068 0.776 0.299 1.395 0.643 1.887 0.74 0.989 1.672 1.707 2.628 2.358 1.932 1.28 4.038 2.215 6.192 2.963 2.162 0.738 4.395 1.241 6.641 1.572 2.249 0.329 4.524 0.457 6.787 0.374 2.262 0.082 4.537-0.045 6.786-0.375 2.247-0.331 4.479-0.835 6.64-1.572 2.156-0.749 4.264-1.684 6.194-2.965 0.956-0.65 1.888-1.369 2.628-2.358 0.344-0.49 0.707-1.115 0.643-1.874C162.813 219.842 162.15 219.311 161.601 219.03zM132.128 226.914c-2.354 0.562-10.656-2.462-12.098-4.402-0.168-0.223 0.26-0.358 0.599-0.349l11.263 4.099C132.156 226.472 132.396 226.852 132.128 226.914zM159.97 222.512c-1.443 1.94-9.746 4.964-12.098 4.402-0.271-0.063-0.032-0.442 0.234-0.652l11.262-4.099C159.706 222.153 160.136 222.289 159.97 222.512z" fill="#128c7e" data-fill-palette-color="accent"></path><path d="M84.232 124.267v60.948c0 3.742 3.044 6.786 6.786 6.786h97.961c3.741 0 6.784-3.044 6.784-6.786v-60.948c0-3.742-3.043-6.787-6.784-6.787H91.019C87.276 117.479 84.232 120.524 84.232 124.267zM171.243 144.323c8.058 0 14.59 6.53 14.59 14.586s-6.532 14.587-14.59 14.587c-8.059 0-14.588-6.531-14.588-14.587S163.185 144.323 171.243 144.323zM108.756 144.323c8.054 0 14.586 6.53 14.586 14.586s-6.532 14.587-14.586 14.587c-8.057 0-14.588-6.531-14.588-14.587S100.699 144.323 108.756 144.323z" fill="#128c7e" data-fill-palette-color="accent"></path></g></svg></g></svg></g><g></g></svg></g><defs></defs></svg><rect width="359.11748742206106" height="247.2" fill="none" stroke="none" visibility="hidden"></rect></g></svg></g></svg>